<?xml version="1.0" standalone="no"?>
<svg width="100" height="100"
  xmlns="http://www.w3.org/2000/svg" 
  xmlns:xlink="http://www.w3.org/1999/xlink">

  <g stroke="#ffcc33" stroke-width="5" stroke-linecap="round" fill="none">
	  <circle cx="50" cy="50" r="25"/>
	  <g transform="translate(50,50)">
		  <line x1="37.5" y1="0" x2="43.25" y2="0"/>
		  <line x1="37.5" y1="0" x2="43.25" y2="0" transform="rotate(30)"/>
		  <line x1="37.5" y1="0" x2="43.25" y2="0" transform="rotate(60)"/>
		  <line x1="37.5" y1="0" x2="43.25" y2="0" transform="rotate(90)"/>
		  <line x1="37.5" y1="0" x2="43.25" y2="0" transform="rotate(120)"/>
		  <line x1="37.5" y1="0" x2="43.25" y2="0" transform="rotate(150)"/>
		  <line x1="37.5" y1="0" x2="43.25" y2="0" transform="rotate(180)"/>
		  <line x1="37.5" y1="0" x2="43.25" y2="0" transform="rotate(210)"/>
		  <line x1="37.5" y1="0" x2="43.25" y2="0" transform="rotate(240)"/>
		  <line x1="37.5" y1="0" x2="43.25" y2="0" transform="rotate(270)"/>
		  <line x1="37.5" y1="0" x2="43.25" y2="0" transform="rotate(300)"/>
		  <line x1="37.5" y1="0" x2="43.25" y2="0" transform="rotate(330)"/>
	  </g>
  </g>

</svg>