<?xml version="1.0" standalone="no"?>
<svg width="100" height="100"
  xmlns="http://www.w3.org/2000/svg" 
  xmlns:xlink="http://www.w3.org/1999/xlink">
  
  <!--<rect x="0" width="100" y="0" height="100" fill="red"/>-->

  <g stroke="white" stroke-linecap="round" fill="none">
	  <!--<path d="m 1,10 a 1,1 0,1,1 0,-2 a 4,4 0,0,1 4,-4 a 5,5 0,0,1 10,0 a 3,3 0,0,1 3,3 a 2,2 0,0,1 2,3 z" stroke-width="1.8" transform="scale(3) translate(11,7.5)"/>-->
	  <path d="m 1,10 a 1,1 0,1,1 0,-2 a 4,4 0,0,1 4,-4 a 5,5 0,0,1 10,0 a 3,3 0,0,1 3,3 a 1.5,1.5 0,1,1 0,3 z" stroke-width="1" transform="scale(4.5) translate(1,7.5)"/>
  </g>

</svg>