<?xml version="1.0" standalone="no"?>
<!DOCTYPE svg PUBLIC "-//W3C//DTD SVG 20010904//EN"
 "http://www.w3.org/TR/2001/REC-SVG-20010904/DTD/svg10.dtd">
<svg version="1.0" xmlns="http://www.w3.org/2000/svg"
 width="1000" height="1000" viewBox="0 0 1000 1000"
 preserveAspectRatio="xMidYMid meet">

<g transform="translate(0,1000) scale(1,-1)"
fill="#fff" stroke="none">
<path d="M425 951 c-80 -20 -157 -92 -177 -165 -10 -37 -18 -47 -55 -65 -53
-25 -99 -93 -109 -160 -5 -32 -16 -54 -37 -74 -25 -23 -28 -32 -23 -60 12 -58
36 -72 134 -75 68 -3 91 -1 100 11 21 25 -7 36 -98 39 l-85 3 -3 33 c-3 29 0
34 27 43 28 10 31 15 31 55 0 74 36 125 107 149 33 11 39 18 44 52 15 102 96
173 199 173 106 0 200 -88 200 -188 0 -25 3 -28 33 -28 78 0 127 -49 127 -128
0 -34 2 -36 33 -36 46 0 77 -24 77 -61 0 -63 -10 -69 -119 -69 -71 0 -102 -4
-110 -14 -23 -27 12 -38 114 -34 92 3 96 4 127 36 27 27 33 40 33 77 0 34 -6
50 -28 73 -16 17 -41 32 -56 35 -24 5 -29 12 -35 46 -8 51 -58 105 -112 121
-36 11 -43 18 -55 54 -21 62 -93 131 -158 150 -58 17 -79 18 -126 7z"/>
<path d="M395 508 c-27 -31 -55 -87 -55 -107 0 -35 67 -54 90 -26 15 18 17
125 3 150 -9 15 -13 13 -38 -17z"/>
<path d="M572 473 c-11 -16 -27 -43 -36 -61 -16 -31 -16 -36 -1 -58 18 -27 56
-32 75 -9 27 33 20 155 -9 155 -5 0 -18 -12 -29 -27z"/>
<path d="M336 259 c-65 -77 -69 -149 -7 -149 16 0 33 6 38 13 19 22 23 82 10
126 l-12 44 -29 -34z"/>
<path d="M517 233 c-9 -10 -25 -39 -36 -63 -17 -38 -18 -48 -7 -65 16 -24 51
-31 71 -15 20 17 29 72 18 116 -10 44 -23 51 -46 27z"/>
</g>
</svg>
