<?xml version="1.0" standalone="no"?>
<!DOCTYPE svg PUBLIC "-//W3C//DTD SVG 20010904//EN"
 "http://www.w3.org/TR/2001/REC-SVG-20010904/DTD/svg10.dtd">
<svg version="1.0" xmlns="http://www.w3.org/2000/svg"
 width="1000" height="1000" viewBox="0 0 1000 1000">

  <g stroke="white" stroke-linecap="round" fill="none">
	  <path d="m 4,10 h -3 a 1,1 0,1,1 0,-2 a 4,4 0,0,1 4,-4 a 5,5 0,0,1 10,0 a 3,3 0,0,1 3,3 a 1.5,1.5 0,1,1 0,3 h -4" stroke-width="1" transform="scale(45) translate(1.5,3)"/>
  </g>
<g transform="translate(0,1000) scale(1,-1)"
fill="white" stroke="none">
<path d="M395 508 c-27 -31 -55 -87 -55 -107 0 -35 67 -54 90 -26 15 18 17
125 3 150 -9 15 -13 13 -38 -17z"/>
<path d="M572 473 c-11 -16 -27 -43 -36 -61 -16 -31 -16 -36 -1 -58 18 -27 56
-32 75 -9 27 33 20 155 -9 155 -5 0 -18 -12 -29 -27z"/>
<path d="M336 259 c-65 -77 -69 -149 -7 -149 16 0 33 6 38 13 19 22 23 82 10
126 l-12 44 -29 -34z"/>
<path d="M517 233 c-9 -10 -25 -39 -36 -63 -17 -38 -18 -48 -7 -65 16 -24 51
-31 71 -15 20 17 29 72 18 116 -10 44 -23 51 -46 27z"/>
</g>
</svg>
